<svg width="36" height="40" viewBox="0 0 36 40" fill="none" xmlns="http://www.w3.org/2000/svg">
<g clip-path="url(#clip0_1279_16730)">
<path d="M10.8333 3.125C10.8333 1.39844 12.2318 0 13.9583 0C15.6849 0 17.0833 1.39844 17.0833 3.125V14.7031C17.7474 14.1094 18.6224 13.75 19.5833 13.75C21.1927 13.75 22.5677 14.7656 23.0989 16.1875C23.7864 15.4609 24.7552 15 25.8333 15C27.8099 15 29.4271 16.5234 29.5755 18.4609C30.2396 17.8594 31.1224 17.5 32.0833 17.5C34.1536 17.5 35.8333 19.1797 35.8333 21.25V25V26.25V30C35.8333 35.5234 31.3568 40 25.8333 40H24.5833H19.5833H19.5755H19.1693C18.7786 40 18.3958 39.9766 18.0208 39.9219C13.7005 39.4844 9.72394 37.2656 7.08331 33.75L1.45831 26.25C0.419249 24.8672 0.700499 22.9141 2.08331 21.875C3.46612 20.8359 5.41925 21.1172 6.45831 22.5L10.8333 28.3359L10.8333 3.125ZM19.5833 23.75C19.5833 23.0625 19.0208 22.5 18.3333 22.5C17.6458 22.5 17.0833 23.0625 17.0833 23.75V31.25C17.0833 31.9375 17.6458 32.5 18.3333 32.5C19.0208 32.5 19.5833 31.9375 19.5833 31.25V23.75ZM23.3333 22.5C22.6458 22.5 22.0833 23.0625 22.0833 23.75V31.25C22.0833 31.9375 22.6458 32.5 23.3333 32.5C24.0208 32.5 24.5833 31.9375 24.5833 31.25V23.75C24.5833 23.0625 24.0208 22.5 23.3333 22.5ZM29.5833 23.75C29.5833 23.0625 29.0208 22.5 28.3333 22.5C27.6458 22.5 27.0833 23.0625 27.0833 23.75V31.25C27.0833 31.9375 27.6458 32.5 28.3333 32.5C29.0208 32.5 29.5833 31.9375 29.5833 31.25V23.75Z" fill="#4D4D4D"/>
</g>
<defs>
<clipPath id="clip0_1279_16730">
<rect width="35" height="40" fill="white" transform="translate(0.833313)"/>
</clipPath>
</defs>
</svg>
