<svg width="22" height="25" viewBox="0 0 22 25" fill="none" xmlns="http://www.w3.org/2000/svg">
<g clip-path="url(#clip0_1770_18741)">
<path d="M18.2642 4.96464C18.2567 4.9144 18.232 4.8683 18.1945 4.83413C18.1569 4.79996 18.1086 4.77983 18.0579 4.77714C17.9642 4.77714 16.3142 4.73964 16.3142 4.73964C16.3142 4.73964 15.3017 3.76464 14.9267 3.38964V23.6725L20.8188 22.21C20.8188 22.21 18.2829 5.07714 18.2642 4.96464ZM13.5954 3.38964C13.5055 3.10592 13.3927 2.83 13.2579 2.56464C12.7657 1.62714 12.0345 1.11621 11.172 1.11621C11.1089 1.11401 11.0458 1.12032 10.9845 1.13496C10.9657 1.09746 10.9282 1.07871 10.9095 1.04121C10.5345 0.628706 10.047 0.441206 9.46572 0.459956C8.34072 0.497456 7.21572 1.30371 6.31104 2.74746C5.67354 3.75996 5.18604 5.03496 5.05478 6.03339C3.76103 6.42714 2.86104 6.70839 2.84229 6.72714C2.18604 6.93339 2.16729 6.95214 2.09229 7.57089C2.03604 8.03964 0.311035 21.249 0.311035 21.249L14.4954 23.71V3.16464C14.4264 3.16724 14.3575 3.1735 14.2892 3.18339C14.2892 3.18339 14.0267 3.25839 13.5954 3.38964ZM11.0032 4.19589C10.2532 4.42089 9.42822 4.68339 8.62197 4.92714C8.84697 4.04589 9.29697 3.16464 9.82197 2.58339C10.0282 2.37714 10.3095 2.13339 10.6282 1.98339C10.947 2.65839 11.022 3.57714 11.0032 4.19589ZM9.46572 1.22871C9.70194 1.22202 9.93544 1.2804 10.1407 1.39746C9.84072 1.54746 9.54072 1.79121 9.25947 2.07246C8.54697 2.84121 8.00322 4.04121 7.77822 5.18964C7.10322 5.39589 6.42822 5.60214 5.80947 5.78964C6.21729 3.98964 7.74072 1.26621 9.46572 1.22871ZM7.29072 11.5506C7.36572 12.7506 10.5392 13.0131 10.7267 15.849C10.8579 18.0803 9.54541 19.6037 7.64697 19.7162C5.35947 19.8662 4.09854 18.5162 4.09854 18.5162L4.58603 16.4537C4.58603 16.4537 5.84228 17.41 6.85478 17.335C7.51103 17.2975 7.75479 16.7537 7.73603 16.3787C7.64228 14.8037 5.05479 14.8975 4.88603 12.3053C4.73603 10.1303 6.16103 7.93183 9.31572 7.72558C10.5345 7.65058 11.1532 7.95058 11.1532 7.95058L10.4407 10.6506C10.4407 10.6506 9.63447 10.2756 8.67822 10.3506C7.29072 10.4443 7.27197 11.3256 7.29072 11.5506ZM11.7532 3.97089C11.7532 3.40839 11.6782 2.60214 11.4157 1.92714C12.2782 2.09589 12.6907 3.05214 12.8782 3.63339C12.5407 3.72714 12.1657 3.83964 11.7532 3.97089Z" fill="#181818"/>
</g>
<defs>
<clipPath id="clip0_1770_18741">
<rect width="21" height="24" fill="white" transform="translate(0.0625 0.0849609)"/>
</clipPath>
</defs>
</svg>
