<svg width="179" height="158" viewBox="0 0 179 158" fill="none" xmlns="http://www.w3.org/2000/svg">
<g clip-path="url(#clip0_1723_18652)">
<path d="M0.949707 60.4031C0.949707 52.1296 7.67627 45.4031 15.9497 45.4031H46.9106C51.3872 45.4031 55.6763 47.1843 58.8403 50.3484L68.895 60.4031H105.95C114.223 60.4031 120.95 67.1296 120.95 75.4031V135.403C120.95 143.677 114.223 150.403 105.95 150.403H15.9497C7.67627 150.403 0.949707 143.677 0.949707 135.403V60.4031ZM15.9497 56.6531C13.8872 56.6531 12.1997 58.3406 12.1997 60.4031V135.403C12.1997 137.466 13.8872 139.153 15.9497 139.153H105.95C108.012 139.153 109.7 137.466 109.7 135.403V75.4031C109.7 73.3406 108.012 71.6531 105.95 71.6531H68.1216C65.6372 71.6531 63.2466 70.6687 61.4888 68.9109L50.895 58.2937C49.8403 57.239 48.4106 56.6531 46.9106 56.6531H15.9497Z" fill="#FF5314"/>
</g>
<g clip-path="url(#clip1_1723_18652)">
<path d="M59.5236 21.6891C62.712 14.0547 71.5112 10.4399 79.1456 13.6282L107.715 25.5597C111.846 27.2849 115.117 30.5814 116.818 34.7204L122.221 47.8733L156.414 62.1531C164.048 65.3415 167.663 74.1407 164.474 81.7751L141.352 137.141C138.164 144.775 129.364 148.39 121.73 145.202L38.6816 110.518C31.0471 107.33 27.4324 98.5306 30.6207 90.8962L59.5236 21.6891ZM74.8102 24.0093C72.907 23.2145 70.6995 24.1213 69.9047 26.0245L41.0018 95.2316C40.2069 97.1348 41.1138 99.3423 43.017 100.137L126.066 134.821C127.969 135.615 130.176 134.709 130.971 132.805L154.093 77.4397C154.888 75.5365 153.981 73.329 152.078 72.5342L117.172 57.9563C114.879 56.9989 113.053 55.1693 112.108 52.8698L106.424 38.9902C105.857 37.6105 104.764 36.5188 103.38 35.9408L74.8102 24.0093Z" fill="#FF5314"/>
</g>
<defs>
<clipPath id="clip0_1723_18652">
<rect width="120" height="120" fill="white" transform="translate(0.949707 37.9031)"/>
</clipPath>
<clipPath id="clip1_1723_18652">
<rect width="120" height="120" fill="white" transform="translate(68.1943 0.927002) rotate(22.6668)"/>
</clipPath>
</defs>
</svg>
