<svg width="41" height="40" viewBox="0 0 41 40" fill="none" xmlns="http://www.w3.org/2000/svg">
<g clip-path="url(#clip0_1723_18690)">
<path d="M20.167 3.75C11.1904 3.75 3.91699 11.0234 3.91699 20V23.125C3.91699 24.1641 3.08105 25 2.04199 25C1.00293 25 0.166992 24.1641 0.166992 23.125V20C0.166992 8.95312 9.12012 0 20.167 0C31.2139 0 40.167 8.95312 40.167 20V31.2578C40.167 35.0547 37.0889 38.1328 33.2842 38.1328L24.667 38.125C24.0186 39.2422 22.8076 40 21.417 40H18.917C16.8467 40 15.167 38.3203 15.167 36.25C15.167 34.1797 16.8467 32.5 18.917 32.5H21.417C22.8076 32.5 24.0186 33.2578 24.667 34.375L33.292 34.3828C35.0186 34.3828 36.417 32.9844 36.417 31.2578V20C36.417 11.0234 29.1436 3.75 20.167 3.75ZM11.417 16.25H12.667C14.0498 16.25 15.167 17.3672 15.167 18.75V27.5C15.167 28.8828 14.0498 30 12.667 30H11.417C8.65918 30 6.41699 27.7578 6.41699 25V21.25C6.41699 18.4922 8.65918 16.25 11.417 16.25ZM28.917 16.25C31.6748 16.25 33.917 18.4922 33.917 21.25V25C33.917 27.7578 31.6748 30 28.917 30H27.667C26.2842 30 25.167 28.8828 25.167 27.5V18.75C25.167 17.3672 26.2842 16.25 27.667 16.25H28.917Z" fill="#4D4D4D"/>
</g>
<defs>
<clipPath id="clip0_1723_18690">
<rect width="40" height="40" fill="white" transform="translate(0.166992)"/>
</clipPath>
</defs>
</svg>
