<svg width="91" height="121" viewBox="0 0 91 121" fill="none" xmlns="http://www.w3.org/2000/svg">
<g clip-path="url(#clip0_1854_19087)">
<g clip-path="url(#clip1_1854_19087)">
<path d="M51.61 110.889C48.6803 113.818 43.9225 113.818 40.9928 110.889L10.9928 80.8887C8.83656 78.7324 8.20375 75.5215 9.37562 72.709C10.5475 69.8965 13.2662 68.0684 16.3131 68.0684L76.3131 68.0684C79.3366 68.0684 82.0787 69.8965 83.2506 72.709C84.4225 75.5215 83.7662 78.7324 81.6334 80.8887L51.6334 110.889L51.61 110.889ZM51.61 10.2715L81.61 40.2715C83.7662 42.4277 84.3991 45.6387 83.2272 48.4512C82.0553 51.2637 79.3366 53.0918 76.2897 53.0918L16.3131 53.0918C13.2897 53.0918 10.5475 51.2637 9.37562 48.4512C8.20374 45.6387 8.85999 42.4277 10.9928 40.2715L40.9928 10.2715C43.9225 7.34179 48.6803 7.34179 51.61 10.2715Z" fill="#FF5314"/>
</g>
</g>
<defs>
<clipPath id="clip0_1854_19087">
<rect width="90" height="120" fill="white" transform="translate(0.960938 0.0859375)"/>
</clipPath>
<clipPath id="clip1_1854_19087">
<rect width="75" height="120" fill="white" transform="translate(83.8135 120.592) rotate(180)"/>
</clipPath>
</defs>
</svg>
