<svg width="106" height="121" viewBox="0 0 106 121" fill="none" xmlns="http://www.w3.org/2000/svg">
<g clip-path="url(#clip0_1854_19081)">
<path d="M37.9375 19.6484C37.9375 13.4375 42.9766 8.39844 49.1875 8.39844H56.6875C62.8984 8.39844 67.9375 13.4375 67.9375 19.6484V102.148C67.9375 108.359 62.8984 113.398 56.6875 113.398H49.1875C42.9766 113.398 37.9375 108.359 37.9375 102.148V19.6484ZM0.4375 64.6484C0.4375 58.4375 5.47656 53.3984 11.6875 53.3984H19.1875C25.3984 53.3984 30.4375 58.4375 30.4375 64.6484V102.148C30.4375 108.359 25.3984 113.398 19.1875 113.398H11.6875C5.47656 113.398 0.4375 108.359 0.4375 102.148V64.6484ZM86.6875 23.3984H94.1875C100.398 23.3984 105.438 28.4375 105.438 34.6484V102.148C105.438 108.359 100.398 113.398 94.1875 113.398H86.6875C80.4766 113.398 75.4375 108.359 75.4375 102.148V34.6484C75.4375 28.4375 80.4766 23.3984 86.6875 23.3984Z" fill="#FF5314"/>
</g>
<defs>
<clipPath id="clip0_1854_19081">
<rect width="105" height="120" fill="white" transform="translate(0.4375 0.898438)"/>
</clipPath>
</defs>
</svg>
