<svg width="540" height="57" viewBox="0 0 540 57" fill="none" xmlns="http://www.w3.org/2000/svg">
<rect y="0.5" width="540" height="56" rx="16" fill="black"/>
<rect y="0.5" width="540" height="56" rx="16" fill="black" fill-opacity="0.2"/>
<path d="M37.6662 23.3182H39.2074V30.0149C39.2074 30.7275 39.04 31.3589 38.7053 31.9091C38.3705 32.456 37.8999 32.8868 37.2933 33.2017C36.6868 33.5133 35.9759 33.669 35.1605 33.669C34.3485 33.669 33.6392 33.5133 33.0327 33.2017C32.4261 32.8868 31.9555 32.456 31.6207 31.9091C31.286 31.3589 31.1186 30.7275 31.1186 30.0149V23.3182H32.6548V29.8906C32.6548 30.3513 32.7559 30.7607 32.9581 31.1186C33.1636 31.4766 33.4536 31.7583 33.8281 31.9638C34.2027 32.166 34.6468 32.267 35.1605 32.267C35.6776 32.267 36.1233 32.166 36.4979 31.9638C36.8757 31.7583 37.1641 31.4766 37.3629 31.1186C37.5651 30.7607 37.6662 30.3513 37.6662 29.8906V23.3182ZM42.7241 28.9659V33.5H41.2376V25.8636H42.6644V27.1065H42.7589C42.9345 26.7022 43.2096 26.3774 43.5841 26.1321C43.962 25.8868 44.4376 25.7642 45.011 25.7642C45.5314 25.7642 45.9871 25.8736 46.3782 26.0923C46.7693 26.3078 47.0725 26.6293 47.288 27.0568C47.5034 27.4844 47.6111 28.013 47.6111 28.6428V33.5H46.1246V28.8217C46.1246 28.2682 45.9805 27.8357 45.6921 27.5241C45.4037 27.2093 45.0077 27.0518 44.5039 27.0518C44.1592 27.0518 43.8526 27.1264 43.5841 27.2756C43.319 27.4247 43.1085 27.6435 42.9528 27.9318C42.8003 28.2169 42.7241 28.5616 42.7241 28.9659ZM54.02 28.5533V29.8409H49.5058V28.5533H54.02ZM61.6395 27.728L60.2922 27.9666C60.2359 27.7943 60.1464 27.6302 60.0237 27.4744C59.9044 27.3187 59.742 27.1911 59.5365 27.0916C59.331 26.9922 59.0742 26.9425 58.7659 26.9425C58.345 26.9425 57.9937 27.0369 57.712 27.2259C57.4302 27.4115 57.2894 27.6518 57.2894 27.9467C57.2894 28.2019 57.3838 28.4074 57.5728 28.5632C57.7617 28.719 58.0666 28.8466 58.4875 28.946L59.7006 29.2244C60.4032 29.3868 60.9269 29.6371 61.2716 29.9751C61.6163 30.3132 61.7887 30.7524 61.7887 31.2926C61.7887 31.75 61.6561 32.1577 61.3909 32.5156C61.1291 32.8703 60.7629 33.1487 60.2922 33.3509C59.8249 33.553 59.283 33.6541 58.6665 33.6541C57.8114 33.6541 57.1137 33.4718 56.5735 33.1072C56.0332 32.7393 55.7018 32.2173 55.5791 31.5412L57.0159 31.3224C57.1054 31.697 57.2894 31.9804 57.5678 32.1726C57.8462 32.3615 58.2091 32.456 58.6566 32.456C59.1438 32.456 59.5332 32.3549 59.8249 32.1527C60.1165 31.9472 60.2624 31.697 60.2624 31.402C60.2624 31.1634 60.1729 30.9628 59.9939 30.8004C59.8183 30.638 59.5481 30.5154 59.1835 30.4325L57.8909 30.1491C57.1783 29.9867 56.6513 29.7282 56.31 29.3736C55.9719 29.0189 55.8029 28.5698 55.8029 28.0263C55.8029 27.5755 55.9288 27.1811 56.1807 26.843C56.4326 26.505 56.7806 26.2415 57.2247 26.0526C57.6689 25.8603 58.1776 25.7642 58.751 25.7642C59.5763 25.7642 60.2259 25.9432 60.6999 26.3011C61.1738 26.6558 61.4871 27.1314 61.6395 27.728ZM66.6303 33.6541C65.8779 33.6541 65.2299 33.4934 64.6864 33.1719C64.1461 32.8471 63.7285 32.3913 63.4335 31.8047C63.1419 31.2147 62.996 30.5237 62.996 29.7315C62.996 28.9493 63.1419 28.2599 63.4335 27.6634C63.7285 27.0668 64.1395 26.6011 64.6665 26.2663C65.1968 25.9316 65.8166 25.7642 66.5259 25.7642C66.9567 25.7642 67.3743 25.8355 67.7787 25.978C68.1831 26.1205 68.546 26.3442 68.8675 26.6491C69.189 26.9541 69.4425 27.3501 69.6281 27.8374C69.8137 28.3213 69.9065 28.9096 69.9065 29.6023V30.1293H63.8362V29.0156H68.4499C68.4499 28.6245 68.3703 28.2782 68.2112 27.9766C68.0521 27.6716 67.8284 27.4313 67.5401 27.2557C67.255 27.08 66.9203 26.9922 66.5358 26.9922C66.1182 26.9922 65.7536 27.0949 65.4421 27.3004C65.1338 27.5026 64.8952 27.7678 64.7261 28.0959C64.5604 28.4207 64.4776 28.7737 64.4776 29.1548V30.0249C64.4776 30.5353 64.5671 30.9695 64.746 31.3274C64.9283 31.6854 65.1819 31.9588 65.5067 32.1477C65.8315 32.3333 66.211 32.4261 66.6452 32.4261C66.9269 32.4261 67.1838 32.3864 67.4158 32.3068C67.6478 32.224 67.8483 32.1013 68.0173 31.9389C68.1864 31.7765 68.3156 31.576 68.4051 31.3374L69.8121 31.5909C69.6994 32.0052 69.4972 32.3681 69.2055 32.6797C68.9172 32.9879 68.5543 33.2282 68.1168 33.4006C67.6826 33.5696 67.1871 33.6541 66.6303 33.6541ZM72.9584 23.3182V33.5H71.4719V23.3182H72.9584ZM78.1654 33.6541C77.413 33.6541 76.7651 33.4934 76.2215 33.1719C75.6812 32.8471 75.2636 32.3913 74.9687 31.8047C74.677 31.2147 74.5312 30.5237 74.5312 29.7315C74.5312 28.9493 74.677 28.2599 74.9687 27.6634C75.2636 27.0668 75.6746 26.6011 76.2016 26.2663C76.7319 25.9316 77.3517 25.7642 78.061 25.7642C78.4919 25.7642 78.9095 25.8355 79.3138 25.978C79.7182 26.1205 80.0811 26.3442 80.4026 26.6491C80.7241 26.9541 80.9777 27.3501 81.1633 27.8374C81.3489 28.3213 81.4417 28.9096 81.4417 29.6023V30.1293H75.3714V29.0156H79.985C79.985 28.6245 79.9054 28.2782 79.7464 27.9766C79.5873 27.6716 79.3635 27.4313 79.0752 27.2557C78.7902 27.08 78.4554 26.9922 78.0709 26.9922C77.6533 26.9922 77.2887 27.0949 76.9772 27.3004C76.6689 27.5026 76.4303 27.7678 76.2613 28.0959C76.0955 28.4207 76.0127 28.7737 76.0127 29.1548V30.0249C76.0127 30.5353 76.1022 30.9695 76.2812 31.3274C76.4634 31.6854 76.717 31.9588 77.0418 32.1477C77.3666 32.3333 77.7461 32.4261 78.1803 32.4261C78.462 32.4261 78.7189 32.3864 78.9509 32.3068C79.1829 32.224 79.3834 32.1013 79.5525 31.9389C79.7215 31.7765 79.8508 31.576 79.9402 31.3374L81.3472 31.5909C81.2345 32.0052 81.0323 32.3681 80.7407 32.6797C80.4523 32.9879 80.0894 33.2282 79.6519 33.4006C79.2177 33.5696 78.7222 33.6541 78.1654 33.6541ZM86.2236 33.6541C85.4845 33.6541 84.8481 33.4867 84.3145 33.152C83.7842 32.8139 83.3765 32.3482 83.0915 31.755C82.8065 31.1617 82.664 30.4822 82.664 29.7166C82.664 28.9411 82.8098 28.2566 83.1015 27.6634C83.3931 27.0668 83.8041 26.6011 84.3344 26.2663C84.8647 25.9316 85.4895 25.7642 86.2087 25.7642C86.7887 25.7642 87.3058 25.8719 87.7598 26.0874C88.2139 26.2995 88.5801 26.5978 88.8586 26.9822C89.1403 27.3667 89.3077 27.8158 89.3607 28.3295H87.914C87.8344 27.9716 87.6521 27.6634 87.3671 27.4048C87.0854 27.1463 86.7075 27.017 86.2336 27.017C85.8193 27.017 85.4563 27.1264 85.1448 27.3452C84.8365 27.5606 84.5962 27.8688 84.4239 28.2699C84.2515 28.6676 84.1654 29.1383 84.1654 29.6818C84.1654 30.2386 84.2499 30.7192 84.4189 31.1236C84.588 31.5279 84.8266 31.8411 85.1348 32.0632C85.4464 32.2853 85.8126 32.3963 86.2336 32.3963C86.5153 32.3963 86.7705 32.3449 86.9992 32.2422C87.2312 32.1361 87.4251 31.9853 87.5809 31.7898C87.7399 31.5942 87.851 31.3589 87.914 31.0838H89.3607C89.3077 31.5777 89.1469 32.0185 88.8784 32.4062C88.61 32.794 88.2504 33.099 87.7996 33.321C87.3522 33.5431 86.8268 33.6541 86.2236 33.6541ZM94.431 25.8636V27.0568H90.2598V25.8636H94.431ZM91.3784 24.0341H92.8649V31.2578C92.8649 31.5462 92.908 31.7633 92.9942 31.9091C93.0804 32.0516 93.1914 32.1494 93.3273 32.2024C93.4665 32.2521 93.6173 32.277 93.7797 32.277C93.899 32.277 94.0034 32.2687 94.0929 32.2521C94.1824 32.2356 94.252 32.2223 94.3017 32.2124L94.5702 33.4403C94.484 33.4735 94.3614 33.5066 94.2023 33.5398C94.0432 33.5762 93.8443 33.5961 93.6057 33.5994C93.2146 33.6061 92.85 33.5365 92.5119 33.3906C92.1739 33.2448 91.9004 33.0194 91.6916 32.7145C91.4828 32.4096 91.3784 32.0268 91.3784 31.5661V24.0341Z" fill="white"/>
<g filter="url(#filter0_d_803_13127)">
<path d="M457 22.5C457 18.0817 460.582 14.5 465 14.5H512C516.418 14.5 520 18.0817 520 22.5V34.5C520 38.9183 516.418 42.5 512 42.5H465C460.582 42.5 457 38.9183 457 34.5V22.5Z" fill="white"/>
<path d="M457.5 22.5C457.5 18.3579 460.858 15 465 15H512C516.142 15 519.5 18.3579 519.5 22.5V34.5C519.5 38.6421 516.142 42 512 42H465C460.858 42 457.5 38.6421 457.5 34.5V22.5Z" stroke="#E1E4EA"/>
<path d="M468.119 33.5V23.3182H471.748C472.54 23.3182 473.196 23.4624 473.717 23.7507C474.237 24.0391 474.626 24.4335 474.885 24.9339C475.143 25.4311 475.273 25.9912 475.273 26.6143C475.273 27.2408 475.142 27.8042 474.88 28.3047C474.621 28.8018 474.23 29.1963 473.707 29.4879C473.186 29.7763 472.532 29.9205 471.743 29.9205H469.247V28.6179H471.604C472.104 28.6179 472.51 28.5317 472.822 28.3594C473.133 28.1837 473.362 27.9451 473.508 27.6435C473.654 27.3419 473.727 26.9988 473.727 26.6143C473.727 26.2299 473.654 25.8885 473.508 25.5902C473.362 25.2919 473.132 25.0582 472.817 24.8892C472.505 24.7202 472.094 24.6357 471.584 24.6357H469.655V33.5H468.119ZM476.87 33.5V25.8636H478.357V33.5H476.87ZM477.621 24.6854C477.363 24.6854 477.14 24.5992 476.955 24.4268C476.773 24.2512 476.681 24.0424 476.681 23.8004C476.681 23.5552 476.773 23.3464 476.955 23.174C477.14 22.9983 477.363 22.9105 477.621 22.9105C477.88 22.9105 478.1 22.9983 478.282 23.174C478.468 23.3464 478.561 23.5552 478.561 23.8004C478.561 24.0424 478.468 24.2512 478.282 24.4268C478.1 24.5992 477.88 24.6854 477.621 24.6854ZM481.759 28.9659V33.5H480.273V25.8636H481.7V27.1065H481.794C481.97 26.7022 482.245 26.3774 482.619 26.1321C482.997 25.8868 483.473 25.7642 484.046 25.7642C484.566 25.7642 485.022 25.8736 485.413 26.0923C485.804 26.3078 486.108 26.6293 486.323 27.0568C486.539 27.4844 486.646 28.013 486.646 28.6428V33.5H485.16V28.8217C485.16 28.2682 485.016 27.8357 484.727 27.5241C484.439 27.2093 484.043 27.0518 483.539 27.0518C483.194 27.0518 482.888 27.1264 482.619 27.2756C482.354 27.4247 482.144 27.6435 481.988 27.9318C481.835 28.2169 481.759 28.5616 481.759 28.9659Z" fill="#525866"/>
<path d="M512.385 24.8568L507.643 20.1162C507.527 20.0001 507.389 19.908 507.238 19.8452C507.086 19.7823 506.923 19.75 506.759 19.75C506.595 19.75 506.433 19.7823 506.281 19.8452C506.129 19.908 505.991 20.0001 505.875 20.1162L501.685 24.3193C500.853 24.0584 498.951 23.7436 496.967 25.3459C496.83 25.4559 496.718 25.5934 496.638 25.7496C496.558 25.9058 496.511 26.0771 496.502 26.2523C496.492 26.4276 496.52 26.6029 496.583 26.7668C496.645 26.9307 496.742 27.0796 496.866 27.2037L500.641 30.9772L497.308 34.3076C497.191 34.4249 497.125 34.584 497.125 34.7498C497.125 34.9157 497.191 35.0747 497.308 35.192C497.425 35.3093 497.584 35.3752 497.75 35.3752C497.916 35.3752 498.075 35.3093 498.192 35.192L501.523 31.8592L505.296 35.6318C505.412 35.7483 505.549 35.8408 505.701 35.9039C505.853 35.967 506.016 35.9996 506.18 35.9998C506.21 35.9998 506.239 35.9998 506.268 35.9998C506.446 35.9875 506.62 35.9369 506.777 35.8516C506.934 35.7662 507.07 35.6481 507.178 35.5053C508.712 33.4662 508.564 31.8084 508.208 30.8178L512.385 26.6248C512.501 26.5087 512.594 26.3708 512.656 26.2191C512.719 26.0674 512.751 25.9048 512.751 25.7407C512.751 25.5765 512.719 25.4139 512.656 25.2623C512.593 25.1106 512.501 24.9729 512.385 24.8568ZM511.5 25.7412L507.026 30.2303C506.934 30.323 506.873 30.4424 506.852 30.5717C506.831 30.7009 506.851 30.8335 506.91 30.9506C507.649 32.4295 506.769 33.9654 506.18 34.749L497.75 26.3186C498.694 25.5576 499.597 25.3568 500.288 25.3568C500.726 25.3509 501.161 25.4368 501.564 25.6092C501.681 25.668 501.814 25.6883 501.944 25.6671C502.074 25.6459 502.193 25.5844 502.286 25.4912L506.76 20.9998L511.5 25.7404V25.7412Z" fill="#0E121B"/>
</g>
<defs>
<filter id="filter0_d_803_13127" x="455" y="13.5" width="67" height="32" filterUnits="userSpaceOnUse" color-interpolation-filters="sRGB">
<feFlood flood-opacity="0" result="BackgroundImageFix"/>
<feColorMatrix in="SourceAlpha" type="matrix" values="0 0 0 0 0 0 0 0 0 0 0 0 0 0 0 0 0 0 127 0" result="hardAlpha"/>
<feOffset dy="1"/>
<feGaussianBlur stdDeviation="1"/>
<feComposite in2="hardAlpha" operator="out"/>
<feColorMatrix type="matrix" values="0 0 0 0 0.0392157 0 0 0 0 0.0509804 0 0 0 0 0.0784314 0 0 0 0.03 0"/>
<feBlend mode="normal" in2="BackgroundImageFix" result="effect1_dropShadow_803_13127"/>
<feBlend mode="normal" in="SourceGraphic" in2="effect1_dropShadow_803_13127" result="shape"/>
</filter>
</defs>
</svg>
